<svg width="1366" height="591" viewBox="0 0 1366 591" fill="none" xmlns="http://www.w3.org/2000/svg">
<path d="M1061.54 593H1453.5C1473.11 593 1489 577.106 1489 557.5C1489 537.894 1473.11 522 1453.5 522H1061.54C1041.93 522 1026.04 537.894 1026.04 557.5C1026.04 577.106 1041.93 593 1061.54 593Z" fill="#F1F5F7"/>
<path d="M1106.79 583.715H1094.57V705.882H1106.79V583.715Z" fill="#F0F4F7"/>
<path d="M1155.36 319.259H811.139V494.605H1155.36V319.259Z" fill="#F0F4F7"/>
<rect x="1027.09" y="363.095" width="80.8462" height="32.6978" fill="#DDE6ED"/>
<path d="M1117.99 387.886C1125.14 387.886 1130.93 382.095 1130.93 374.951C1130.93 367.807 1125.14 362.016 1117.99 362.016C1110.85 362.016 1105.06 367.807 1105.06 374.951C1105.06 382.095 1110.85 387.886 1117.99 387.886Z" fill="white"/>
<path d="M1113.94 281.264L1499.23 -60L1798 119.838L1130 320.527" fill="#FFF2CD"/>
<path d="M1266.97 476.129L1174.9 456.726V329.086L1266.97 315.583V476.129Z" fill="#A6F1D8"/>
<path d="M1186.18 268.939L1180.21 296.139L1186.74 296.42L1187.36 312.136L1210.1 310.501L1212.2 322.359C1212.2 322.359 1217.37 333.914 1230.91 333.188C1241.78 332.606 1247.68 318.223 1247.68 318.223L1240.54 266.309C1238.97 254.904 1228.66 246.78 1217.21 247.915L1173.38 252.26C1173.39 252.26 1171.54 264.821 1186.18 268.939Z" fill="#FFC472"/>
<path d="M1186.18 268.938C1171.19 266.405 1173.39 252.262 1173.39 252.262L1217.21 247.918C1228.67 246.782 1238.97 254.907 1240.54 266.311L1243.7 289.275C1237.92 289.286 1232.82 285.52 1231.08 280.001C1229.3 274.356 1226.87 267.989 1224.63 266.674C1217.4 262.438 1193.1 270.106 1186.18 268.938Z" fill="#3C4852"/>
<path d="M1215.72 261.059L1218.62 274.695C1218.62 274.695 1212.49 275.302 1209.62 271.256C1206.74 267.21 1206.13 261.084 1206.13 261.084L1215.72 261.059Z" fill="#3C4852"/>
<path d="M1199.8 284.918C1201.68 284.918 1203.21 283.393 1203.21 281.511C1203.21 279.63 1201.68 278.105 1199.8 278.105C1197.92 278.105 1196.4 279.63 1196.4 281.511C1196.4 283.393 1197.92 284.918 1199.8 284.918Z" fill="#3C4852"/>
<path d="M1174.89 329.086L1122.1 358.554L1122.71 319.266L1109.83 301.466L1088.95 401.525L1174.89 381.493V329.086Z" fill="#08BD80"/>
<path d="M1267.11 374.951L1285.08 408.008L1277.17 410.164L1278.97 422.74L1306.64 435.316L1328.55 432.801L1285.08 347.284L1267.11 315.664" fill="#08BD80"/>
<path d="M1284 178H1274V710H1284V178Z" fill="#FFCBCB"/>
<path d="M1460 171H0V182H1460V171Z" fill="url(#paint0_linear_413_7944)"/>
<path d="M1224.53 284.405C1225.82 284.405 1226.87 283.359 1226.87 282.069C1226.87 280.779 1225.82 279.733 1224.53 279.733C1223.24 279.733 1222.2 280.779 1222.2 282.069C1222.2 283.359 1223.24 284.405 1224.53 284.405Z" fill="white"/>
<path d="M1223.27 282.608L1220.04 289.076L1221.84 289.795L1225.07 282.608" fill="white"/>
<path d="M1285.79 408.729L1244.83 414.118L1246.63 437.115L1306.63 435.318L1317.77 418.43" fill="#08BD80"/>
<path d="M1238.72 409.807H1244.47L1248.07 443.942H1243.04L1238.72 409.807Z" fill="#08BD80"/>
<path d="M1203.15 409.807H1197.4L1193.81 443.942H1198.84L1203.15 409.807Z" fill="#08BD80"/>
<path d="M1174.8 461.361L1224.39 472.5L1248.1 710.008H1230.5L1174.8 461.361Z" fill="#6AA4F5"/>
<path d="M1217.41 470.861L1267 482L1200.64 591.26L1212.12 710H1192L1163.99 580.839L1217.41 470.861Z" fill="#94BFFF"/>
<path d="M531.541 593H923.5C943.106 593 959 577.106 959 557.5C959 537.894 943.106 522 923.5 522H531.541C511.935 522 496.041 537.894 496.041 557.5C496.041 577.106 511.935 593 531.541 593Z" fill="#F1F5F7"/>
<path d="M576.791 583.715H564.574V705.882H576.791V583.715Z" fill="#F0F4F7"/>
<path d="M889.75 583.715H877.533V705.882H889.75V583.715Z" fill="#F0F4F7"/>
<path d="M870.426 170.86V192.779H878.331V170.86" fill="#FEE2E2"/>
<path d="M1241.24 170.86V192.779H1249.5V170.86" fill="#FFC9C9"/>
<path d="M504.642 175.531V193.45H512.906V175.531" fill="#FEF9F9"/>
<path d="M767.301 319.259H423.076V494.605H767.301V319.259Z" fill="#F0F4F7"/>
<rect opacity="0.5" x="613.873" y="433.521" width="153.069" height="32.6978" fill="#DDE6ED"/>
<rect opacity="0.5" x="811.139" y="411.243" width="153.069" height="32.6978" fill="#DDE6ED"/>
<rect x="691.126" y="374.234" width="39.1655" height="32.6978" fill="#DDE6ED"/>
<rect x="474.817" y="360.939" width="80.8462" height="32.6978" fill="white"/>
<rect x="1037.15" y="435.317" width="80.8462" height="32.6978" fill="white"/>
<path d="M1130 321.5C1136.67 324 1150.2 331.4 1151 341C1152 353 1154.5 377.5 1170 386C1172.19 387.202 1185.46 400 1201.5 372.5C1208.5 360.5 1208 357 1216 335C1222.12 318.175 1217 296 1221.5 288.5" stroke="white"/>
<path d="M1115.4 279.962L1109.06 282.752L1126.8 323.029L1133.13 320.239L1115.4 279.962Z" fill="#EB5757"/>
<path d="M1109.5 302.5C1111.34 294.519 1119.48 296.835 1119.48 296.835C1119.48 296.835 1127.02 300.371 1126.4 308.966C1126.4 308.966 1122.59 315.983 1122.65 325.365" fill="#FFC472"/>
<path d="M0 -30H1366V738H0V-30Z" fill="url(#paint1_linear_413_7944)"/>
<defs>
<linearGradient id="paint0_linear_413_7944" x1="371" y1="177.001" x2="1375.5" y2="177.005" gradientUnits="userSpaceOnUse">
<stop stop-color="#FFC8C8" stop-opacity="0.0729167"/>
<stop offset="1" stop-color="#FFC8C8"/>
</linearGradient>
<linearGradient id="paint1_linear_413_7944" x1="3.10371e-09" y1="354" x2="1366" y2="354.452" gradientUnits="userSpaceOnUse">
<stop offset="0.349876" stop-color="#FCFCFC"/>
<stop offset="0.651042" stop-color="#FCFCFC" stop-opacity="0.0660948"/>
<stop offset="1" stop-color="#FCFCFC" stop-opacity="0"/>
</linearGradient>
</defs>
</svg>
